<svg width="24" height="23" viewBox="0 0 24 23" fill="none" xmlns="http://www.w3.org/2000/svg">
<path d="M6.30833 0.998929C6.30833 0.733996 6.20251 0.479915 6.01415 0.292579C5.82578 0.105244 5.57031 0 5.30392 0C5.03754 0 4.78206 0.105244 4.5937 0.292579C4.40533 0.479915 4.29951 0.733996 4.29951 0.998929V3.41767C3.32249 3.55546 2.41766 4.00746 1.72317 4.70466C1.02868 5.40185 0.582682 6.30593 0.453282 7.27886L0.33677 8.14859C0.317128 8.2951 0.29838 8.4425 0.280523 8.59079C0.269723 8.68306 0.278732 8.77656 0.306955 8.86512C0.335178 8.95367 0.381973 9.03526 0.444248 9.1045C0.506523 9.17373 0.582862 9.22904 0.66822 9.26677C0.753578 9.30449 0.846012 9.32377 0.939417 9.32333H23.0619C23.1553 9.32377 23.2478 9.30449 23.3331 9.26677C23.4185 9.22904 23.4948 9.17373 23.5571 9.1045C23.6194 9.03526 23.6662 8.95367 23.6944 8.86512C23.7226 8.77656 23.7316 8.68306 23.7208 8.59079L23.6646 8.14859L23.5481 7.27886C23.4187 6.30593 22.9727 5.40185 22.2782 4.70466C21.5837 4.00746 20.6788 3.55546 19.7018 3.41767V0.998929C19.7018 0.733996 19.596 0.479915 19.4076 0.292579C19.2193 0.105244 18.9638 0 18.6974 0C18.431 0 18.1756 0.105244 17.9872 0.292579C17.7988 0.479915 17.693 0.733996 17.693 0.998929V3.22055C13.906 2.88576 10.0967 2.88576 6.30967 3.22055L6.30833 0.998929ZM23.9793 11.9552C23.973 11.7844 23.9002 11.6227 23.7762 11.5044C23.6523 11.3861 23.4869 11.3204 23.315 11.3212H0.684967C0.513142 11.3204 0.347742 11.3861 0.223769 11.5044C0.0997953 11.6227 0.0269745 11.7844 0.0207155 11.9552C-0.0584734 14.3655 0.0894862 16.7779 0.462657 19.1608C0.600194 20.0387 1.02707 20.8463 1.67623 21.4567C2.32538 22.0671 3.16004 22.4458 4.04908 22.5332L5.64676 22.6903C9.87199 23.1032 14.128 23.1032 18.3532 22.6903L19.9509 22.5332C20.84 22.4458 21.6746 22.0671 22.3238 21.4567C22.9729 20.8463 23.3998 20.0387 23.5373 19.1608C23.9105 16.7779 24.0585 14.3655 23.9793 11.9552Z" fill="#222D40"/>
</svg>
