<svg width="23" height="26" viewBox="0 0 23 26" fill="none" xmlns="http://www.w3.org/2000/svg">
<path d="M22.483 7.97411C22.3191 7.80075 22.1239 7.66326 21.909 7.56962C21.694 7.47598 21.4635 7.42803 21.2308 7.42857H17.6923V6.5C17.6923 4.77609 17.0399 3.12279 15.8786 1.90381C14.7173 0.684819 13.1423 0 11.5 0C9.85769 0 8.28266 0.684819 7.12138 1.90381C5.96009 3.12279 5.30769 4.77609 5.30769 6.5V7.42857H1.76923C1.3 7.42857 0.84999 7.62423 0.518195 7.97252C0.1864 8.3208 0 8.79317 0 9.28571V21.8214C0 24.0848 1.82452 26 3.98077 26H19.0192C20.0622 26.0003 21.064 25.5723 21.8102 24.8074C22.1857 24.4313 22.4848 23.9793 22.6892 23.4785C22.8937 22.9778 22.9995 22.4388 23 21.894V9.28571C23.0007 9.04207 22.9554 8.8007 22.8667 8.57556C22.7779 8.35043 22.6475 8.146 22.483 7.97411ZM15.729 14.0446L10.7752 20.5446C10.6938 20.6513 10.591 20.7379 10.4741 20.7981C10.3573 20.8583 10.2292 20.8906 10.099 20.8929H10.0846C9.95684 20.8929 9.83058 20.8638 9.71452 20.8077C9.59846 20.7516 9.49536 20.6698 9.4123 20.5679L7.28923 17.9632C7.21372 17.8705 7.15634 17.7632 7.12036 17.6472C7.08439 17.5313 7.07052 17.409 7.07956 17.2874C7.08859 17.1658 7.12035 17.0473 7.17302 16.9386C7.2257 16.8299 7.29825 16.7332 7.38654 16.6539C7.47482 16.5747 7.57712 16.5144 7.68759 16.4767C7.79805 16.4389 7.91452 16.4244 8.03034 16.4338C8.14617 16.4433 8.25908 16.4767 8.36262 16.5319C8.46617 16.5872 8.55833 16.6634 8.63384 16.7561L10.0625 18.5082L14.3479 12.8839C14.4945 12.6915 14.708 12.5682 14.9413 12.5409C15.1746 12.5137 15.4086 12.5849 15.5919 12.7388C15.7752 12.8928 15.8927 13.1168 15.9186 13.3617C15.9446 13.6066 15.8767 13.8522 15.7301 14.0446H15.729ZM15.9231 7.42857H7.07692V6.5C7.07692 5.26864 7.54292 4.08771 8.37241 3.217C9.2019 2.3463 10.3269 1.85714 11.5 1.85714C12.6731 1.85714 13.7981 2.3463 14.6276 3.217C15.4571 4.08771 15.9231 5.26864 15.9231 6.5V7.42857Z" fill="#222D40"/>
</svg>
