<svg width="23" height="17" viewBox="0 0 23 17" fill="none" xmlns="http://www.w3.org/2000/svg">
<path d="M0 4.25C0 3.12283 0.454437 2.04183 1.26334 1.2448C2.07224 0.447767 3.16935 0 4.31331 0H11.5022C12.6461 0 13.7432 0.447767 14.5521 1.2448C15.361 2.04183 15.8155 3.12283 15.8155 4.25V12.75C15.8155 13.8772 15.361 14.9582 14.5521 15.7552C13.7432 16.5522 12.6461 17 11.5022 17H4.31331C3.16935 17 2.07224 16.5522 1.26334 15.7552C0.454437 14.9582 0 13.8772 0 12.75V4.25ZM20.182 15.266L17.2532 13.2727V3.72583L20.182 1.734C20.4516 1.55063 20.767 1.44338 21.0941 1.42385C21.4212 1.40433 21.7474 1.47327 22.0376 1.62322C22.3277 1.77318 22.5708 1.99844 22.7404 2.27464C22.91 2.55085 22.9998 2.86749 23 3.19033V13.8082C23.0001 14.1312 22.9105 14.448 22.7409 14.7244C22.5714 15.0009 22.3284 15.2263 22.0382 15.3764C21.748 15.5266 21.4216 15.5956 21.0945 15.5762C20.7673 15.5567 20.4517 15.4494 20.182 15.266Z" fill="#222D40"/>
</svg>
